<svg xmlns="http://www.w3.org/2000/svg" viewBox="0 0 4996.29 4996.29"><defs><style>.cls-1{fill:#fff;}.cls-2{fill:#ef810e;}.cls-3{fill:#1d1d1b;}.cls-4{fill:#ffbf00;}</style></defs><g id="Camada_2" data-name="Camada 2"><g id="Camada_1-2" data-name="Camada 1"><path class="cls-1" d="M2498.14,4921.29a2441.2,2441.2,0,0,1-488.42-49.23,2409.44,2409.44,0,0,1-866.33-364.56,2430.43,2430.43,0,0,1-878-1066.18,2410.21,2410.21,0,0,1-141.16-454.75,2447.52,2447.52,0,0,1,0-976.85,2409.44,2409.44,0,0,1,364.56-866.33A2430.43,2430.43,0,0,1,1555,265.39a2410.21,2410.21,0,0,1,454.75-141.16,2447.52,2447.52,0,0,1,976.85,0,2409.29,2409.29,0,0,1,866.32,364.56A2430.38,2430.38,0,0,1,4730.9,1555a2410.94,2410.94,0,0,1,141.16,454.75,2447.52,2447.52,0,0,1,0,976.85A2409.44,2409.44,0,0,1,4507.5,3852.9a2430.57,2430.57,0,0,1-1066.18,878,2410.21,2410.21,0,0,1-454.75,141.16A2441.22,2441.22,0,0,1,2498.14,4921.29Z"/><path class="cls-2" d="M2498.14,150a2366.16,2366.16,0,0,1,473.4,47.71,2334.55,2334.55,0,0,1,839.37,353.23,2355.41,2355.41,0,0,1,850.91,1033.25,2335.47,2335.47,0,0,1,136.76,440.56,2372.45,2372.45,0,0,1,0,946.79,2334.55,2334.55,0,0,1-353.23,839.37A2355.41,2355.41,0,0,1,3412.1,4661.82a2335.47,2335.47,0,0,1-440.56,136.76,2372.45,2372.45,0,0,1-946.79,0,2334.55,2334.55,0,0,1-839.37-353.23A2355.41,2355.41,0,0,1,334.47,3412.1a2334.74,2334.74,0,0,1-136.76-440.56,2372.45,2372.45,0,0,1,0-946.79,2334.55,2334.55,0,0,1,353.23-839.37A2355.41,2355.41,0,0,1,1584.19,334.47a2334.74,2334.74,0,0,1,440.56-136.76A2366.06,2366.06,0,0,1,2498.14,150m0-150C1118.46,0,0,1118.46,0,2498.15S1118.46,4996.29,2498.14,4996.29,4996.29,3877.83,4996.29,2498.15,3877.83,0,2498.14,0Z"/><path class="cls-3" d="M2447.32,600.22l.11,600c-485.8.09-881,395.39-881,881.19,0,152.26,39.36,302.19,113.81,433.59l.56,1,1.61,2.83,1.71,3,.13.22c1.3,2.25,2.61,4.5,3.93,6.73l.23.39c.52.89,1,1.77,1.57,2.65l2.93,4.88.8,1.3.63,1,.16.27,2.33,3.79,0,.06q1.76,2.85,3.53,5.68l.18.29c.61,1,1.24,2,1.86,2.95l.31.49q1.93,3.06,3.9,6.1l.09.14,2,3,.23.33c.61,1,1.24,1.91,1.86,2.85l.13.19q1.3,2,2.62,4l.14.21c.88,1.32,1.77,2.65,2.66,4l.18.26c.84,1.24,1.67,2.48,2.52,3.71l.72,1.06q1.26,1.84,2.53,3.68l.33.47,1.83,2.63.36.45,4.81,6.88,1.07,1.48,5.12,7.07c3.59,4.92,7.3,9.89,11,14.78l.27.34c168.35,220.15,423.61,346.44,700.31,346.49l-.11,600a1481.34,1481.34,0,0,1-1176.81-582c-6.36-8.3-12.68-16.75-18.82-25.15-1.12-1.52-2.25-3.07-3.48-4.77l-.31-.39-2.15-3-.94-1.17-4.41-6.29-3.92-5.46-.34-.57-1.18-1.68-.1-.13q-2.77-4-5.53-7.94-2.57-3.69-5.1-7.41t-4.9-7.2q-2.37-3.51-4.73-7h0q-2.49-3.73-4.95-7.48h0c-1.32-2-2.58-3.91-3.84-5.84l-3-4.7c-2.68-4.13-5.12-8-7.47-11.68-1.15-1.82-2.3-3.63-3.44-5.46h0q-2.92-4.68-5.84-9.39l-.26-.44q-1.92-3.11-3.83-6.24l-.82-1.34c-.16-.26-.32-.52-.47-.78l-.47-.77c-.69-1.13-1.37-2.27-2.05-3.4s-1.31-2.17-2-3.26l-1.35-2.25-3.62-6.1c-2.14-3.63-4.27-7.29-6.39-11-1-1.79-2.07-3.57-3.09-5.36l-3.4-5.95a1475.73,1475.73,0,0,1-191.9-729.59A1479.92,1479.92,0,0,1,2447.32,600.22Z"/><path class="cls-4" d="M2745.74,1724a1475.11,1475.11,0,0,1,530.16,223,1484.63,1484.63,0,0,1,536.31,651.41,1475.09,1475.09,0,0,1,86.43,278.45,1490.78,1490.78,0,0,1-23.63,694.6,1475.26,1475.26,0,0,1-151.4,356c-3.29,5.59-6.7,11.27-10.12,16.88s-6.89,11.24-10.22,16.56c-1.26,2-2.54,4-3.82,6.07-2.32,3.67-4.74,7.45-7.39,11.54h0q-1.56,2.41-3.14,4.83h0q-1.77,2.73-3.56,5.44-2.39,3.63-4.79,7.23-2.52,3.79-5.08,7.56t-4.95,7.28q-2.45,3.59-4.92,7.16l-.13.19q-2.72,3.9-5.43,7.77l-.09.13q-2.17,3.11-4.37,6.18l-.19.27-4.75,6.77-.91,1.15-2.43,3.39-.38.48c-1.12,1.54-2.24,3.09-3.37,4.63h0c-6.2,8.47-12.65,17.1-19.17,25.62l-.07.09A1478.28,1478.28,0,0,1,2447.55,4656.3h-.17v-600h.17c276.64,0,531.9-126.2,700.33-346.26h0c3.93-5.14,7.78-10.29,11.45-15.31l.2-.27,3.25-4.47c.29-.42.59-.83.89-1.24l7-9.95.31-.38,1.49-2.14h0l2.68-3.9.77-1.11c.82-1.2,1.63-2.41,2.49-3.68l.18-.27c.79-1.16,1.57-2.32,2.35-3.49l.45-.68q1.32-2,2.61-3.93l.1-.16c.64-1,1.28-1.93,1.91-2.9l.22-.34c.66-1,1.32-2,2-3l.09-.15q2-3,3.88-6.06l.93-1.46.68-1.07.95-1.54c2-3.16,4.08-6.54,6.22-10.05l.11-.19c1.9-3.12,3.78-6.26,5.59-9.33l.22-.37c79.72-134.88,121.86-289.6,121.86-447.45,0-485.89-395.29-881.19-881.18-881.19v-600A1490.91,1490.91,0,0,1,2745.74,1724ZM3163,3689.71l.07-.09-.07.09Zm-2,2.81h0l0,.06Zm-.06.09-.31.45h0Z"/><path class="cls-3" d="M2447.63,1737.58A1482.19,1482.19,0,0,1,3878.42,3602a1475.18,1475.18,0,0,1-141.79,346.41l-3.44,6-3,5.27h0q-3.29,5.68-6.61,11.33-1.7,2.87-3.41,5.73l-1.34,2.25-1.91,3.17-1.91,3.18-.5.81-.72,1.19-.84,1.38q-1.86,3-3.73,6.07l-.26.44q-2.8,4.53-5.62,9-1.78,2.85-3.58,5.68c-2.37,3.76-4.84,7.62-7.53,11.79h0l-3.2,4.93q-1.81,2.78-3.64,5.55c-1.6,2.43-3.22,4.88-4.85,7.32h0c-1.62,2.42-3.25,4.86-4.89,7.27h0c-1.65,2.44-3.3,4.89-5,7.31q-2.62,3.87-5.29,7.7t-5.27,7.54l-.09.13-1.1,1.56-3.37,5.65-8.79,11.36c-1.23,1.7-2.38,3.27-3.51,4.81-6.19,8.46-12.57,17-19,25.35A1478.23,1478.23,0,0,1,2447.63,4700l-.12-600c276.71-.05,532-126.34,700.32-346.49l.26-.35c2.95-3.84,5.88-7.73,8.73-11.61l2.53-4.23,7.44-9.55,3.22-4.54,2.38-3.42.26-.38c.85-1.22,1.68-2.44,2.52-3.66l.77-1.13c.84-1.22,1.66-2.45,2.5-3.68l.16-.25q1.33-2,2.66-3.95l.15-.22,2.63-4,.06-.09c.68-1,1.31-2,1.93-2.94l.22-.34,2-3,.11-.17c1.31-2,2.61-4,3.89-6.08l.3-.48c.64-1,1.24-2,1.83-2.9l.25-.4c1.24-2,2.46-3.94,3.68-5.92.73-1.18,1.42-2.31,2.11-3.44l.16-.25c.29-.49.6-1,.9-1.48l.61-1,3-5c.51-.85,1-1.71,1.52-2.57l.2-.33c1.32-2.24,2.64-4.49,3.94-6.75l.11-.19,1.68-2.9c.55-1,1.1-1.94,1.66-2.91l.68-1.2c74.38-131.35,113.7-281.2,113.7-433.39,0-485.8-395.23-881.1-881-881.19Zm755,1935.57.15-.24Z"/><path class="cls-4" d="M2447.43,556.4v600c-485.89,0-881.19,395.3-881.19,881.18,0,157.85,42.14,312.58,121.86,447.45l.22.36c1.81,3.08,3.69,6.22,5.6,9.34l.11.19c2.14,3.52,4.23,6.9,6.21,10.06l1,1.57.66,1,.91,1.44c1.29,2,2.6,4.08,3.91,6.12l2,3.14.22.33c.6.93,1.2,1.85,1.81,2.77l.14.22q1.33,2,2.66,4l.46.69c.77,1.15,1.54,2.31,2.32,3.45l.2.3c.84,1.24,1.67,2.48,2.52,3.71l.72,1q1.35,2,2.71,3.94h0c.83,1.19,1.65,2.38,2.49,3.57l.26.34,4.59,6.52,1.28,1.8.24.33c.32.43.64.87,1,1.31q1.56,2.16,3.13,4.3l.19.27c3.7,5.06,7.58,10.24,11.52,15.39,168.37,220,423.63,346.19,700.27,346.19h.17v600h-.17a1481.38,1481.38,0,0,1-1176.79-581.59c-6.57-8.59-13-17.22-19.23-25.71h0l-3.07-4.2-.32-.42-2.19-3-.84-1-5.26-7.5c-.17-.23-.33-.47-.5-.71-1.4-2-2.81-4-4.2-5.93l-.13-.19c-1.81-2.58-3.61-5.15-5.41-7.75l-.15-.21q-2.53-3.66-5-7.33c-1.65-2.4-3.28-4.81-4.92-7.23s-3.43-5.08-5.12-7.64c-1.55-2.31-3.08-4.62-4.61-6.94l-.12-.19-3.48-5.31h0l-3.18-4.89c-2.63-4.07-5-7.85-7.35-11.51q-1.93-3-3.83-6.08c-3.33-5.31-6.76-10.87-10.2-16.52-3.35-5.5-6.68-11-9.91-16.53a1475.65,1475.65,0,0,1-205.34-752.74,1490.83,1490.83,0,0,1,30.09-298.19,1479.92,1479.92,0,0,1,1451.1-1183ZM1243.75,2900.92h0Z"/></g></g></svg>